<svg width="320" height="61" viewBox="0 0 320 61" fill="none" xmlns="http://www.w3.org/2000/svg">
<g clip-path="url(#clip0_1832_6193)">
<path fill-rule="evenodd" clip-rule="evenodd" d="M308.214 30.5H320C313.79 27.45 308.721 22.6208 305.679 16.6479C300.483 6.73542 290.598 1.14375 277.798 0L278.051 0.889583C286.923 4.32083 293.133 9.78542 296.681 17.5375C299.216 22.7479 303.271 27.3229 308.214 30.5Z" fill="white"/>
<path fill-rule="evenodd" clip-rule="evenodd" d="M308.214 30.5H320C313.79 33.55 308.721 38.3792 305.679 44.3521C300.483 54.2646 290.598 59.8563 277.798 61L278.051 60.1104C286.923 56.6792 293.133 51.2146 296.681 43.4625C299.216 38.2521 303.271 33.6771 308.214 30.5Z" fill="#B1B1B1"/>
<path fill-rule="evenodd" clip-rule="evenodd" d="M277.671 9.91248C279.826 17.4104 282.614 23.7646 285.149 26.8146C286.416 28.4666 288.19 29.7375 290.091 30.5H299.343C295.034 28.5937 291.485 25.2896 289.584 21.0958C287.303 16.0125 282.994 12.0729 277.671 9.91248Z" fill="white"/>
<path fill-rule="evenodd" clip-rule="evenodd" d="M277.671 51.0875C279.826 43.5896 282.614 37.2354 285.149 34.1854C286.416 32.5333 288.19 31.2625 290.091 30.5H299.343C295.034 32.4063 291.485 35.7104 289.584 39.9042C287.303 44.9875 282.994 49.0542 277.671 51.0875Z" fill="#B1B1B1"/>
<path fill-rule="evenodd" clip-rule="evenodd" d="M79.2078 44.9875L80.2217 39.9042H54.7484V33.55H75.0256V27.7042H54.7484V21.35H77.5603C78.0672 21.35 78.5741 20.9687 78.7009 20.4604L79.588 15.5042H48.6652C48.0316 15.5042 47.6514 16.0125 47.6514 16.5208V45.75H78.1939C78.5741 45.75 79.0811 45.3687 79.2078 44.9875Z" fill="white"/>
<path fill-rule="evenodd" clip-rule="evenodd" d="M164.879 44.9875L165.893 39.9042H140.42V33.55H160.697V27.7042H140.42V21.35H163.232C163.739 21.35 164.246 20.9687 164.372 20.4604L165.259 15.5042H134.337C133.703 15.5042 133.323 16.0125 133.323 16.5208V45.75H163.865C164.372 45.75 164.752 45.3687 164.879 44.9875Z" fill="white"/>
<path fill-rule="evenodd" clip-rule="evenodd" d="M225.331 24.2729L247.636 44.8604C248.143 45.3688 248.903 45.6229 249.664 45.6229H254.86V15.25H249.03C248.396 15.25 247.889 15.7583 247.889 16.2667V35.8375L226.345 15.8854C225.838 15.3771 225.077 15.1229 224.444 15.1229H218.234V45.6229H225.331V24.2729Z" fill="white"/>
<path fill-rule="evenodd" clip-rule="evenodd" d="M10.899 40.1583C11.2792 39.5229 11.9129 39.1417 12.6733 39.1417H29.9089L32.9505 44.7333C33.3307 45.3688 33.9644 45.75 34.598 45.75H41.5683L25.4733 16.5208C25.0931 15.7583 24.2059 15.25 23.3188 15.25H16.602L0 45.75H7.85743L10.899 40.1583ZM20.6574 22.3667L26.6139 33.2958H14.701L20.6574 22.3667Z" fill="white"/>
<path fill-rule="evenodd" clip-rule="evenodd" d="M181.101 40.1583C181.481 39.5229 182.115 39.1417 182.875 39.1417H200.111L203.152 44.7333C203.533 45.3688 204.166 45.75 204.8 45.75H211.77L195.802 16.5208C195.422 15.7583 194.535 15.25 193.647 15.25H186.931L170.329 45.75H178.186L181.101 40.1583ZM190.859 22.3667L196.816 33.2958H184.903L190.859 22.3667Z" fill="white"/>
<path fill-rule="evenodd" clip-rule="evenodd" d="M123.818 42.0646V28.5937H110.384V33.55C110.384 34.0583 110.891 34.5666 111.398 34.5666H116.721V38.5062C114.947 39.7771 110.511 40.6666 105.949 40.6666C98.4715 40.6666 93.7824 36.8541 93.9091 30.7541C94.0358 24.6541 98.5982 20.8416 105.949 20.8416C111.018 20.8416 115.58 21.9854 119.763 24.1458L122.931 18.4271C114.313 14.2333 106.709 14.4875 105.949 14.4875C94.5427 14.4875 86.5586 21.0958 86.5586 30.6271C86.5586 40.2854 94.1625 46.8937 105.442 46.8937C117.735 46.8937 123.818 42.0646 123.818 42.0646Z" fill="white"/>
</g>
<defs>
<clipPath id="clip0_1832_6193">
<rect width="320" height="61" fill="white"/>
</clipPath>
</defs>
</svg>
