<svg width="220" height="220" viewBox="0 0 220 220" fill="none" xmlns="http://www.w3.org/2000/svg">
<g clip-path="url(#clip0_1832_6088)">
<path d="M220 0H0V220H220V0Z" fill="#313840"/>
<path d="M190.178 110.5C190.178 167.686 157.44 191.178 109.5 191.178C62.1015 191.178 29.3223 167.728 29.3223 110.5C29.3223 53.2715 62.0598 29.8221 110 29.8221C157.399 29.8221 190.178 53.2715 190.178 110.5Z" fill="white"/>
<path d="M41.5674 110.5C41.5674 158.898 66.5162 178.932 110 178.932C153.483 178.932 178.432 158.898 178.432 110.5C178.432 62.1015 153.483 42.0674 110 42.0674C66.0164 42.0674 41.5674 62.1015 41.5674 110.5Z" fill="#313840"/>
<path d="M77.2208 56.7285V79.7198H55.2291C53.2715 86.0924 51.8138 99.2541 51.314 106.126H76.721V164.771C82.094 166.729 95.7971 169.186 102.128 169.186V124.203L140.738 163.813C145.153 162.355 158.815 150.61 160.273 146.694L122.162 106.126H167.645C167.145 97.7963 165.687 86.5922 163.23 79.7198H102.67V52.3552C97.2966 52.8133 79.1784 55.7289 77.2208 56.7285Z" fill="white"/>
</g>
<defs>
<clipPath id="clip0_1832_6088">
<rect width="220" height="220" fill="white"/>
</clipPath>
</defs>
</svg>
