<svg width="250" height="44" viewBox="0 0 250 44" fill="none" xmlns="http://www.w3.org/2000/svg">
<g clip-path="url(#clip0_1832_6208)">
<path fill-rule="evenodd" clip-rule="evenodd" d="M62.9766 43.2404H79.2432V42.9282L74.0506 40.4864V26.5898H78.8048C90.6305 26.5898 96.6987 22.0209 96.6987 13.7588C96.6987 6.06038 90.6343 1.30434 78.8048 1.30434H62.9766V1.61653L67.5439 4.05711V40.4927L62.9766 42.9346V43.2467V43.2404ZM78.681 4.69157C86 4.69157 89.6918 7.13216 89.6918 13.9547C89.6918 20.7772 86 23.2178 78.681 23.2178H74.0506V4.68651H78.681V4.69157ZM105.02 7.88293C105.799 7.88293 106.561 7.6516 107.21 7.21824C107.858 6.78488 108.363 6.16896 108.662 5.44833C108.96 4.7277 109.038 3.93476 108.886 3.16978C108.733 2.40481 108.358 1.70218 107.806 1.15075C107.255 0.599308 106.553 0.223849 105.788 0.0718363C105.023 -0.0801762 104.23 -0.00191301 103.51 0.296744C102.79 0.595401 102.174 1.10103 101.741 1.74968C101.308 2.39832 101.077 3.16084 101.078 3.94082C101.076 4.45922 101.176 4.97292 101.373 5.45226C101.571 5.93161 101.861 6.36709 102.227 6.73359C102.594 7.1001 103.029 7.39037 103.509 7.58763C103.988 7.7849 104.501 7.88528 105.02 7.88293ZM98.1971 43.2455H113.088V42.9333L108.771 40.6797V11.571H108.459L98.5736 13.8245V14.1379L102.514 16.5153V40.6747L98.1971 42.9282V43.2404V43.2455ZM113.338 43.2455H129.479V42.9333L123.912 40.6797V27.2825C123.912 19.8343 126.163 16.1425 130.734 16.1425C131.542 16.0954 132.351 16.2219 133.106 16.5133C133.862 16.8048 134.546 17.2545 135.113 17.8323H135.366V11.6986C134.33 11.3919 133.254 11.2444 132.174 11.2613C128.358 11.2613 125.226 14.2024 123.917 18.7714V11.5735H123.605L113.718 13.827V14.1405L117.659 16.5179V40.6772L113.343 42.9307V43.2429L113.338 43.2455ZM159.76 39.6156V23.2127C159.76 14.8887 155.318 11.1956 147.622 11.1956C141.742 11.1956 137.675 14.325 136.737 19.5196L137.049 19.646C139.114 16.7049 142.118 15.3273 146.246 15.3273C151.439 15.3273 153.503 17.7059 153.503 21.5203V23.5224L146.681 25.0251C138.86 26.7782 134.919 29.8431 134.919 35.4144C134.919 40.3587 138.422 43.9886 144.804 43.9886C146.752 44.0166 148.664 43.459 150.293 42.3881C151.921 41.3171 153.191 39.782 153.938 37.9813V43.7384H154.264L163.711 42.1118V41.7996L159.76 39.6156ZM146.936 39.7344C146.208 39.7868 145.477 39.6819 144.793 39.4269C144.108 39.1718 143.487 38.7725 142.971 38.2561C142.454 37.7396 142.055 37.1182 141.8 36.4338C141.545 35.7494 141.44 35.018 141.492 34.2895C141.492 30.5964 143.308 28.8446 146.998 27.97L153.505 26.4672V31.974C153.505 36.8564 151.065 39.7356 146.935 39.7356M179.093 43.9912C184.974 43.9912 188.603 41.8021 191.231 36.356L190.978 36.1689C188.475 38.8597 185.597 39.5486 182.03 39.5486C174.21 39.5486 170.706 35.0415 170.706 26.217H191.295C191.295 16.7036 186.916 11.1956 178.845 11.1956C169.961 11.1956 164.518 18.2671 164.518 27.9068C164.518 37.0435 169.961 43.9912 179.095 43.9912M170.836 23.3366C171.275 17.2042 173.589 14.4501 177.97 14.4501C182.599 14.4501 184.918 17.5795 184.918 23.3366H170.836ZM206.191 43.9912C208.222 44.0523 210.218 43.4504 211.877 42.2763C213.536 41.1022 214.768 39.4198 215.387 37.4834V43.7409H215.701L225.586 42.1143V41.8021L221.645 39.6105V11.4459H221.327L211.754 13.0725V13.3859L215.382 15.5762V28.3416C215.382 35.0402 213.068 39.6686 208.063 39.6686C203.933 39.6686 202.369 36.9778 202.369 33.1608V11.571H202.057L192.167 13.8245V14.1379L196.109 16.5153V32.8499C196.109 39.8014 199.362 43.9912 206.182 43.9912M238.273 43.9912C245.593 43.9912 249.972 40.4864 249.972 33.9773C249.972 29.6586 246.844 26.6543 240.337 24.7774L239.462 24.5246C233.768 22.8967 231.703 21.4572 231.703 18.5161C231.703 15.6989 233.831 14.4476 238.02 14.4476C240.12 14.3879 242.193 14.9265 243.999 16.0006C245.804 17.0747 247.267 18.6401 248.217 20.5143H248.529V13.5047C245.294 12.0028 241.774 11.2132 238.207 11.1893C231.385 11.1893 227.258 14.8824 227.258 20.2021C227.258 25.2716 230.262 28.1508 237.207 30.154L238.082 30.4068C243.213 31.9083 245.526 33.4111 245.526 36.2271C245.526 39.4197 243.213 40.7328 238.457 40.7328C236.178 40.8053 233.927 40.2177 231.974 39.0409C230.02 37.864 228.448 36.1478 227.447 34.0986H227.133V41.7351C230.629 43.3154 234.436 44.0853 238.27 43.9874M13.1017 1.31193V1.64685L16.7934 3.61729L0 43.2429H12.5345V42.908L8.84397 40.9376L25.6362 1.31193H13.1017ZM40.139 1.31193H27.6045V1.64685L31.2975 3.61729L14.5041 43.2429H27.0373V42.908L23.3456 40.9376L40.139 1.31193ZM54.6456 1.31193H42.1112V1.64685L45.8042 3.61729L29.0082 43.2379H41.5414V42.9029L37.8497 40.9325L54.6456 1.31193Z" fill="#313840"/>
</g>
<defs>
<clipPath id="clip0_1832_6208">
<rect width="250" height="44" fill="white"/>
</clipPath>
</defs>
</svg>
