<svg width="158" height="200" viewBox="0 0 158 200" fill="none" xmlns="http://www.w3.org/2000/svg">
<path d="M78.9248 0.0166089C105.023 -0.169012 131.108 1.26074 157.03 4.29884V120.456C157.03 166.107 121.58 199.998 78.5039 199.998C68.1736 200.067 57.9321 198.083 48.375 194.161C38.818 190.239 30.1357 184.456 22.832 177.15C15.5284 169.844 9.74921 161.16 5.83008 151.602C2.03346 142.342 0.0560973 132.441 0.00195312 122.439V4.29884C26.2006 1.29997 52.5554 -0.129579 78.9248 0.0166089ZM111.357 124.591C88.8048 128.577 74.2957 147.688 44.2422 147.688C33.0133 147.563 22.0247 144.417 12.4316 138.579C16.4452 152.857 25.0234 165.428 36.8564 174.369C48.6902 183.31 63.1291 188.131 77.9609 188.092C89.4886 188.132 100.831 185.188 110.886 179.55L108.854 164.919C108.235 159.201 105.563 157.345 99.8203 156.726L82.4912 154.521V153.408L100.959 151.056C106.726 150.09 108.04 148.011 108.882 143.209L111.357 124.591ZM95.4131 158.654L96.4043 166.505C96.4514 167.345 96.8057 168.139 97.3984 168.736C97.9914 169.333 98.7823 169.694 99.6221 169.747L107.518 170.762V171.33L100.091 172.271C97.9381 172.666 96.7516 172.892 96.2812 175.96L95.29 183.387H94.7197L93.8057 176.06C93.8187 175.577 93.7349 175.095 93.5615 174.645C93.388 174.194 93.1255 173.781 92.792 173.432C92.4586 173.082 92.0593 172.801 91.6172 172.606C91.1752 172.412 90.6976 172.307 90.2148 172.297L82.665 171.33V170.762L90.5127 169.696C91.3381 169.686 92.1304 169.369 92.7344 168.807C93.3385 168.244 93.7115 167.475 93.7793 166.652L94.8184 158.654H95.4131ZM122.991 156.973C116.605 157.79 115.54 160.142 114.6 166.727L113.163 178.361V178.387C122.574 172.612 130.482 164.687 136.236 155.264L122.991 156.973ZM122.373 123.576C119.058 123.583 115.747 123.839 112.471 124.343L114.748 141.994C115.639 148.703 117.348 150.362 124.229 151.179L137.598 152.937V152.986C141.876 145.349 144.579 136.93 145.545 128.229C138.141 125.374 130.305 123.801 122.373 123.576ZM114.574 103.004C83.4809 103.004 69.1959 126.671 37.6074 126.671C27.9642 126.809 18.4397 124.528 9.90527 120.036C9.95479 122.586 10.1779 126.522 10.376 128.429C19.697 134.023 30.4021 136.888 41.2715 136.697C73.3056 136.697 86.3527 113.179 118.312 113.179C127.952 113.109 137.469 115.35 146.064 119.714C145.965 116.892 145.867 114.045 145.545 111.223C136.169 105.699 125.455 102.856 114.574 103.004ZM18.4961 87.085C14.2384 94.5805 11.5292 102.855 10.5303 111.417C17.8322 114.328 25.6118 115.857 33.4727 115.926C36.7058 115.897 39.9334 115.632 43.1279 115.134L41.0234 98.6465C40.3303 93.4478 39.7856 92.6298 38.5479 91.2188C36.9193 89.7581 34.8191 88.9327 32.6318 88.8926L18.4961 87.085ZM78.0596 52.0049C72.4281 51.971 66.8166 52.6878 61.374 54.1348L62.4385 63.1211C62.422 63.6831 62.5175 64.243 62.7197 64.7676C62.9219 65.2921 63.2269 65.7712 63.6162 66.1768C64.0056 66.5822 64.4724 66.9065 64.9883 67.1299C65.5041 67.3531 66.06 67.4711 66.6221 67.4775L76.748 68.79V69.4834L67.2656 70.7705C64.0232 71.1667 62.8098 72.4789 62.5127 74.9541L61.374 83.8672L73.084 85.2031V86.417L54.8389 88.8926C48.4026 89.9076 47.3871 91.8879 46.2979 99.5371L44.4902 114.911C69.2214 110.282 83.655 92.2094 112.1 92.1846C123.208 92.2656 134.078 95.41 143.515 101.271C139.412 87.0774 130.812 74.5993 119.008 65.7149C107.204 56.8307 92.8333 52.0192 78.0596 52.0049ZM10.5244 111.47C10.5264 111.452 10.5282 111.435 10.5303 111.417C10.5119 111.41 10.4929 111.403 10.4746 111.396L10.5244 111.47ZM42.5098 62.0566C33.2616 67.6449 25.5056 75.3927 19.9072 84.6348L33.0029 82.9014C35.1025 82.7427 37.0977 81.9191 38.6973 80.5498C40.0312 78.9189 40.7807 76.8877 40.8262 74.7813L42.5098 62.0566ZM46.8164 74.9551C47.3363 79.4109 49.3419 81.8862 52.8818 82.6289L60.3086 83.7188L59.3672 75.8213C58.9711 72.6279 57.9311 71.192 54.9854 70.8701L46.0732 69.6074L46.8164 74.9551ZM60.3584 54.3574C54.9381 55.7373 49.7258 57.8353 44.8613 60.5957L45.8271 68.666L54.417 67.6016C57.4369 67.1312 58.651 66.2402 59.1709 63.3936L60.3584 54.3574ZM138.514 18.6074C132.622 18.6075 128.612 20.935 128.611 25.8115C128.611 34.2036 139.998 32.5211 139.999 36.4072C139.999 37.9173 138.909 38.7099 136.187 38.71C133.324 38.6252 130.505 37.9774 127.893 36.8037L128.734 42.2998C131.188 43.0996 133.755 43.501 136.335 43.4883C142.425 43.4882 147.426 41.4821 147.426 35.4912C147.425 27.4958 135.939 28.9805 135.938 25.1934H135.914C135.914 23.8814 137.226 23.2872 139.306 23.2871C141.531 23.292 143.738 23.703 145.816 24.5L145.223 19.3008C143.022 18.8055 140.769 18.5726 138.514 18.6074ZM35.4287 19.1025V43.0176H42.7314V33.6104H50.332V43.0176H57.6348V19.1025H50.332V28.6094H42.7314V19.1025H35.4287ZM63.0322 19.1025V43.0176H70.335V19.1025H63.0322ZM75.7314 19.1025V43.0176H88.9268L90.0156 38.2149H83.0352V19.1025H75.7314ZM92.6152 19.1025V43.0176H99.9189L100.042 19.1025H92.6152ZM20.4268 18.583C17.4577 18.5875 14.4902 18.7528 11.5391 19.0781V42.9932H18.8418V37.2988H21.4414C28.2492 37.2987 32.5322 33.7833 32.5322 27.6934C32.5322 20.9846 27.9275 18.5831 20.4268 18.583ZM114.326 18.583C111.357 18.5875 108.39 18.7528 105.439 19.0781V42.9932H112.742V37.2988H115.342C122.125 37.2987 126.433 33.7833 126.433 27.6934C126.433 20.9846 121.827 18.5831 114.326 18.583ZM113.881 23.0889C117.47 23.089 119.179 24.7969 119.179 27.792H119.229C119.317 28.5089 119.238 29.2375 118.998 29.919C118.758 30.6001 118.364 31.2173 117.847 31.7207C117.329 32.2241 116.7 32.6008 116.013 32.8213C115.325 33.0416 114.595 33.0998 113.881 32.9912H112.99V23.0889H113.881ZM20.0557 23.0889C23.6446 23.0891 25.3523 24.797 25.3525 27.792C25.4393 28.5042 25.3611 29.2272 25.124 29.9043C24.8869 30.5813 24.4973 31.1948 23.9854 31.6973C23.4734 32.1996 22.8522 32.5785 22.1709 32.8027C21.4898 33.0268 20.7657 33.0912 20.0557 32.9912H19.1641V23.0889H20.0557Z" fill="white"/>
</svg>
