<svg width="158" height="200" viewBox="0 0 158 200" fill="none" xmlns="http://www.w3.org/2000/svg">
<path d="M78.9248 0.0159871C105.023 -0.169619 131.108 1.26107 157.03 4.29919V120.456C157.03 166.107 121.579 199.998 78.5039 199.998C68.1735 200.068 57.932 198.084 48.375 194.161C38.8179 190.239 30.1357 184.457 22.832 177.151C15.5283 169.845 9.7482 161.16 5.82906 151.602C1.90999 142.044 -0.0704663 131.801 0.00191468 121.471V4.29919C26.2006 1.30031 52.5554 -0.130204 78.9248 0.0159871ZM111.355 124.592C88.8031 128.578 74.2944 147.69 44.2412 147.69C33.0124 147.565 22.0236 144.418 12.4306 138.58C16.4443 152.858 25.0226 165.429 36.8554 174.37C48.6891 183.312 63.1274 188.133 77.9589 188.093C89.4867 188.133 100.83 185.19 110.885 179.551L108.853 164.92C108.235 159.202 105.562 157.346 99.8193 156.727L82.4892 154.522V153.41L100.958 151.057C106.725 150.092 108.038 148.012 108.88 143.21L111.355 124.592ZM95.4121 158.656L96.4033 166.506C96.4505 167.346 96.8039 168.14 97.3964 168.738C97.9894 169.335 98.7812 169.695 99.6211 169.748L107.517 170.763V171.331L100.09 172.272C97.937 172.668 96.7496 172.893 96.2793 175.961L95.288 183.388H94.7177L93.8037 176.061C93.8168 175.578 93.7328 175.097 93.5595 174.646C93.386 174.195 93.1243 173.783 92.791 173.433C92.4576 173.083 92.0582 172.802 91.6162 172.608C91.174 172.413 90.6967 172.308 90.2138 172.298L82.664 171.331V170.763L90.5117 169.698C91.337 169.688 92.1294 169.371 92.7334 168.808C93.3374 168.245 93.7093 167.477 93.7773 166.654L94.8173 158.656H95.4121ZM122.99 156.974C116.603 157.791 115.538 160.143 114.598 166.728L113.162 178.363V178.388C122.573 172.614 130.48 164.688 136.234 155.265L122.99 156.974ZM122.371 123.577C119.056 123.583 115.745 123.84 112.469 124.344L114.747 141.995C115.638 148.704 117.347 150.363 124.228 151.18L137.597 152.938V152.988C141.875 145.35 144.577 136.931 145.543 128.231C138.139 125.376 130.303 123.802 122.371 123.577ZM114.573 103.005C83.4798 103.005 69.1949 126.672 37.6064 126.672C27.9633 126.81 18.4386 124.529 9.90426 120.037C9.9538 122.587 10.176 126.524 10.374 128.43C19.695 134.025 30.4011 136.89 41.2705 136.699C73.3045 136.698 86.3517 113.18 118.311 113.18C127.951 113.11 137.467 115.351 146.062 119.715C145.963 116.893 145.865 114.046 145.543 111.224C136.167 105.7 125.454 102.857 114.573 103.005ZM18.4941 87.0863C14.2366 94.5818 11.5272 102.856 10.5283 111.418C17.8304 114.329 25.6106 115.859 33.4716 115.927C36.7048 115.898 39.9323 115.634 43.1269 115.135L41.0224 98.6468C40.3293 93.4487 39.7844 92.631 38.5468 91.2201C36.9181 89.7591 34.8174 88.933 32.6298 88.8929L18.4941 87.0863ZM78.0586 52.0062C72.4271 51.9723 66.8155 52.6882 61.373 54.1351L62.4375 63.1215C62.4211 63.6834 62.5165 64.2444 62.7187 64.7689C62.921 65.2933 63.226 65.7727 63.6152 66.1781C64.0046 66.5835 64.4714 66.9079 64.9873 67.1312C65.5031 67.3544 66.059 67.4725 66.6211 67.4789L76.7461 68.7914V69.4838L67.2646 70.7718C64.0219 71.168 62.8087 72.4799 62.5117 74.9554L61.373 83.8675L73.082 85.2045V86.4174L54.8369 88.8929C48.4007 89.908 47.3851 91.889 46.2959 99.5384L44.4892 114.912C69.2202 110.283 83.6534 92.211 112.098 92.1859C123.206 92.2669 134.077 95.4112 143.514 101.272C139.411 87.0787 130.811 74.6007 119.007 65.7162C107.203 56.8317 92.8325 52.0206 78.0586 52.0062ZM10.5224 111.471C10.5244 111.454 10.5263 111.436 10.5283 111.418C10.5103 111.411 10.4916 111.404 10.4736 111.397L10.5224 111.471ZM42.5078 62.058C33.2598 67.6463 25.5035 75.3931 19.9052 84.6351L33.0019 82.9027C35.1013 82.744 37.0958 81.9193 38.6953 80.5502C40.029 78.9195 40.7785 76.8888 40.8242 74.7826L42.5078 62.058ZM46.8144 74.9554C47.3344 79.411 49.3402 81.8874 52.8798 82.6302L60.3066 83.7191L59.3662 75.8226C58.9701 72.6291 57.9302 71.1924 54.9843 70.8705L46.0722 69.6088L46.8144 74.9554ZM60.3574 54.3578C54.9369 55.7377 49.725 57.8365 44.8603 60.597L45.8252 68.6674L54.416 67.6029C57.4359 67.1326 58.649 66.2404 59.1689 63.3939L60.3574 54.3578ZM138.513 18.6078C132.621 18.6079 128.611 20.9352 128.61 25.8119C128.611 34.2038 139.997 32.5214 139.998 36.4076C139.998 37.9175 138.908 38.7103 136.186 38.7103C133.323 38.6256 130.504 37.9778 127.892 36.8041L128.733 42.3002C131.187 43.1 133.753 43.5013 136.334 43.4886C142.424 43.4886 147.425 41.4824 147.425 35.4916C147.424 27.4962 135.939 28.9806 135.937 25.1937H135.913C135.913 23.8817 137.225 23.2875 139.305 23.2875C141.531 23.2924 143.737 23.7033 145.815 24.5004L145.222 19.3011C143.021 18.8058 140.768 18.5729 138.513 18.6078ZM35.4277 19.1029V43.0179H42.7304V33.6107H50.331V43.0179H57.6338V19.1029H50.331V28.6097H42.7304V19.1029H35.4277ZM63.0312 19.1029V43.0179H70.3339V19.1029H63.0312ZM75.7304 19.1029V43.0179H88.9257L90.0146 38.2152H83.0341V19.1029H75.7304ZM92.6142 19.1029V43.0179H99.9179L100.041 19.1029H92.6142ZM20.4257 18.5834C17.4566 18.5879 14.4893 18.7531 11.538 19.0785V42.9935H18.8408V37.2992H21.4404C28.2483 37.2992 32.5311 33.7837 32.5312 27.6937C32.5312 20.9848 27.9267 18.5834 20.4257 18.5834ZM114.325 18.5834C111.356 18.5879 108.389 18.7532 105.438 19.0785V42.9935H112.741V37.2992H115.341C122.124 37.2991 126.432 33.7836 126.432 27.6937C126.432 20.9847 121.826 18.5834 114.325 18.5834ZM113.88 23.0892C117.469 23.0892 119.178 24.7971 119.178 27.7924H119.228C119.316 28.5093 119.237 29.2379 118.997 29.9193C118.757 30.6005 118.363 31.2177 117.846 31.7211C117.328 32.2245 116.699 32.6012 116.012 32.8217C115.324 33.042 114.594 33.1002 113.88 32.9916H112.989V23.0892H113.88ZM20.0546 23.0892C23.6438 23.0894 25.3514 24.7972 25.3515 27.7924C25.4382 28.5045 25.3601 29.2275 25.123 29.9047C24.8859 30.5817 24.4963 31.1952 23.9843 31.6976C23.4723 32.2 22.8513 32.5788 22.1699 32.8031C21.4887 33.0272 20.7647 33.0916 20.0546 32.9916H19.163V23.0892H20.0546Z" fill="#313840"/>
</svg>
