<svg width="250" height="105" viewBox="0 0 250 105" fill="none" xmlns="http://www.w3.org/2000/svg">
<g clip-path="url(#clip0_1832_6102)">
<path d="M250 0H0V105H250V0Z" fill="white"/>
<path d="M112.239 30.6403H85.8726V47.2526H108.495V55.3483H85.8726V75.0456H115.192L115.271 83.694H70.8442V22.5456H112.239V30.6403ZM226.587 30.5876H200.221V47.1999H222.843V55.2956H200.195V74.9928H229.54L229.592 83.694H185.193V22.5456H226.587V30.5876ZM179.498 30.7985H156.375C156.375 47.9885 156.402 83.5491 156.402 83.6676H141.267V30.5348H118.145V22.6247H179.498V30.7985ZM44.9009 21.5964C50.5071 21.5793 56.0916 22.2973 61.5112 23.7321V32.7497C56.552 31.1289 51.4023 30.1628 46.1929 29.8757C41.447 29.8757 36.5425 31.4584 36.5425 35.7301C36.5428 40.0017 42.2117 43.2184 46.0347 45.486L52.4146 49.2565C65.096 56.6394 64.148 63.6273 64.1216 67.0026C63.9898 78.5785 53.2585 83.5094 38.5991 83.4303C32.9541 83.6988 27.2964 83.4428 21.6987 82.6657V71.0114C26.8835 72.5621 32.301 73.1868 37.7026 72.8571C43.3976 72.4879 49.5405 71.4589 49.7778 66.5016C50.0937 60.1733 35.5667 54.3464 32.7456 52.6061C32.6953 52.5786 21.1716 46.2559 21.1714 36.4157C21.1714 26.5538 33.4581 21.5436 44.9009 21.5964Z" fill="#313840"/>
</g>
<defs>
<clipPath id="clip0_1832_6102">
<rect width="250" height="105" fill="white"/>
</clipPath>
</defs>
</svg>
