<svg width="250" height="105" viewBox="0 0 250 105" fill="none" xmlns="http://www.w3.org/2000/svg">
<g clip-path="url(#clip0_260_14)">
<path d="M250 0H0V105H250V0Z" fill="#313840"/>
<path d="M112.239 30.6407H85.8726V47.253H108.495V55.3478H85.8726V75.045H115.192L115.271 83.6944H70.8442C70.8442 83.6944 70.8442 42.928 70.8442 22.545H112.239V30.6407ZM226.587 30.588H200.221V47.2003H222.843V55.295H200.195V74.9923H229.54L229.592 83.6944H185.193C185.193 83.6944 185.193 42.928 185.193 22.545H226.587V30.588ZM179.498 30.7989H156.375C156.375 48.0177 156.402 83.6681 156.402 83.6681H141.267C141.267 83.6681 141.267 47.8859 141.267 30.5353H118.145V22.6241H179.498V30.7989ZM44.9009 21.5958C50.5071 21.5788 56.0916 22.2977 61.5112 23.7325V32.7501C56.552 31.1293 51.4023 30.1632 46.1929 29.8761C41.4471 29.8761 36.5426 31.458 36.5425 35.7296C36.5425 40.0013 42.2116 43.2187 46.0347 45.4864L52.4146 49.2569C65.0965 56.6402 64.1479 63.6278 64.1216 67.003C63.9897 78.5789 53.2585 83.5099 38.5991 83.4308C32.9542 83.6992 27.2964 83.4433 21.6987 82.6661V71.0108C26.8835 72.5616 32.301 73.1863 37.7026 72.8566C43.3976 72.4874 49.5405 71.4593 49.7778 66.5021C50.0942 60.1736 35.5667 54.3459 32.7456 52.6056C32.6672 52.5626 21.1714 46.2434 21.1714 36.4151C21.1716 26.5534 33.4582 21.5431 44.9009 21.5958Z" fill="white"/>
</g>
<defs>
<clipPath id="clip0_260_14">
<rect width="250" height="105" fill="white"/>
</clipPath>
</defs>
</svg>
